solid filleted_body
  facet normal 0.0 0.0 1.0
    outer loop
      vertex 0.0 0.0 0.0275
      vertex 0.45 0.27999999999999997 0.0275
      vertex 0.4498288972274762 0.282610523844401 0.0275
    endloop
  endfacet
  facet normal 0.0 0.0 1.0
    outer loop
      vertex 0.0 0.0 0.0275
      vertex 0.4498288972274762 0.282610523844401 0.0275
      vertex 0.44931851652578136 0.2851763809020504 0.0275
    endloop
  endfacet
  facet normal 0.0 0.0 1.0
    outer loop
      vertex 0.0 0.0 0.0275
      vertex 0.44931851652578136 0.2851763809020504 0.0275
      vertex 0.44847759065022574 0.28765366864730174 0.0275
    endloop
  endfacet
  facet normal 0.0 0.0 1.0
    outer loop
      vertex 0.0 0.0 0.0275
      vertex 0.44847759065022574 0.28765366864730174 0.0275
      vertex 0.4473205080756888 0.29 0.0275
    endloop
  endfacet
  facet normal 0.0 0.0 1.0
    outer loop
      vertex 0.0 0.0 0.0275
      vertex 0.4473205080756888 0.29 0.0275
      vertex 0.4458670668058247 0.29217522858017436 0.0275
    endloop
  endfacet
  facet normal 0.0 0.0 1.0
    outer loop
      vertex 0.0 0.0 0.0275
      vertex 0.4458670668058247 0.29217522858017436 0.0275
      vertex 0.44414213562373095 0.2941421356237309 0.0275
    endloop
  endfacet
  facet normal 0.0 0.0 1.0
    outer loop
      vertex 0.0 0.0 0.0275
      vertex 0.44414213562373095 0.2941421356237309 0.0275
      vertex 0.4421752285801744 0.2958670668058247 0.0275
    endloop
  endfacet
  facet normal 0.0 0.0 1.0
    outer loop
      vertex 0.0 0.0 0.0275
      vertex 0.4421752285801744 0.2958670668058247 0.0275
      vertex 0.44 0.29732050807568877 0.0275
    endloop
  endfacet
  facet normal 0.0 0.0 1.0
    outer loop
      vertex 0.0 0.0 0.0275
      vertex 0.44 0.29732050807568877 0.0275
      vertex 0.43765366864730176 0.2984775906502257 0.0275
    endloop
  endfacet
  facet normal 0.0 0.0 1.0
    outer loop
      vertex 0.0 0.0 0.0275
      vertex 0.43765366864730176 0.2984775906502257 0.0275
      vertex 0.4351763809020504 0.29931851652578134 0.0275
    endloop
  endfacet
  facet normal 0.0 0.0 1.0
    outer loop
      vertex 0.0 0.0 0.0275
      vertex 0.4351763809020504 0.29931851652578134 0.0275
      vertex 0.432610523844401 0.2998288972274762 0.0275
    endloop
  endfacet
  facet normal 0.0 0.0 1.0
    outer loop
      vertex 0.0 0.0 0.0275
      vertex 0.432610523844401 0.2998288972274762 0.0275
      vertex 0.43 0.3 0.0275
    endloop
  endfacet
  facet normal 0.0 -0.0 1.0
    outer loop
      vertex 0.0 0.0 0.0275
      vertex 0.43 0.3 0.0275
      vertex -0.43 0.3 0.0275
    endloop
  endfacet
  facet normal 0.0 0.0 1.0
    outer loop
      vertex 0.0 0.0 0.0275
      vertex -0.43 0.3 0.0275
      vertex -0.432610523844401 0.2998288972274762 0.0275
    endloop
  endfacet
  facet normal 0.0 0.0 1.0
    outer loop
      vertex 0.0 0.0 0.0275
      vertex -0.432610523844401 0.2998288972274762 0.0275
      vertex -0.4351763809020504 0.29931851652578134 0.0275
    endloop
  endfacet
  facet normal 0.0 0.0 1.0
    outer loop
      vertex 0.0 0.0 0.0275
      vertex -0.4351763809020504 0.29931851652578134 0.0275
      vertex -0.43765366864730176 0.2984775906502257 0.0275
    endloop
  endfacet
  facet normal 0.0 0.0 1.0
    outer loop
      vertex 0.0 0.0 0.0275
      vertex -0.43765366864730176 0.2984775906502257 0.0275
      vertex -0.44 0.29732050807568877 0.0275
    endloop
  endfacet
  facet normal 0.0 0.0 1.0
    outer loop
      vertex 0.0 0.0 0.0275
      vertex -0.44 0.29732050807568877 0.0275
      vertex -0.4421752285801744 0.2958670668058247 0.0275
    endloop
  endfacet
  facet normal 0.0 0.0 1.0
    outer loop
      vertex 0.0 0.0 0.0275
      vertex -0.4421752285801744 0.2958670668058247 0.0275
      vertex -0.44414213562373095 0.2941421356237309 0.0275
    endloop
  endfacet
  facet normal 0.0 0.0 1.0
    outer loop
      vertex 0.0 0.0 0.0275
      vertex -0.44414213562373095 0.2941421356237309 0.0275
      vertex -0.4458670668058247 0.2921752285801744 0.0275
    endloop
  endfacet
  facet normal 0.0 0.0 1.0
    outer loop
      vertex 0.0 0.0 0.0275
      vertex -0.4458670668058247 0.2921752285801744 0.0275
      vertex -0.44732050807568874 0.29 0.0275
    endloop
  endfacet
  facet normal 0.0 0.0 1.0
    outer loop
      vertex 0.0 0.0 0.0275
      vertex -0.44732050807568874 0.29 0.0275
      vertex -0.44847759065022574 0.2876536686473018 0.0275
    endloop
  endfacet
  facet normal 0.0 0.0 1.0
    outer loop
      vertex 0.0 0.0 0.0275
      vertex -0.44847759065022574 0.2876536686473018 0.0275
      vertex -0.44931851652578136 0.2851763809020504 0.0275
    endloop
  endfacet
  facet normal 0.0 0.0 1.0
    outer loop
      vertex 0.0 0.0 0.0275
      vertex -0.44931851652578136 0.2851763809020504 0.0275
      vertex -0.4498288972274762 0.282610523844401 0.0275
    endloop
  endfacet
  facet normal 0.0 0.0 1.0
    outer loop
      vertex 0.0 0.0 0.0275
      vertex -0.4498288972274762 0.282610523844401 0.0275
      vertex -0.45 0.27999999999999997 0.0275
    endloop
  endfacet
  facet normal 0.0 0.0 1.0
    outer loop
      vertex 0.0 0.0 0.0275
      vertex -0.45 0.27999999999999997 0.0275
      vertex -0.45 -0.27999999999999997 0.0275
    endloop
  endfacet
  facet normal 0.0 0.0 1.0
    outer loop
      vertex 0.0 0.0 0.0275
      vertex -0.45 -0.27999999999999997 0.0275
      vertex -0.4498288972274762 -0.282610523844401 0.0275
    endloop
  endfacet
  facet normal 0.0 0.0 1.0
    outer loop
      vertex 0.0 0.0 0.0275
      vertex -0.4498288972274762 -0.282610523844401 0.0275
      vertex -0.44931851652578136 -0.2851763809020504 0.0275
    endloop
  endfacet
  facet normal 0.0 0.0 1.0
    outer loop
      vertex 0.0 0.0 0.0275
      vertex -0.44931851652578136 -0.2851763809020504 0.0275
      vertex -0.44847759065022574 -0.28765366864730174 0.0275
    endloop
  endfacet
  facet normal 0.0 0.0 1.0
    outer loop
      vertex 0.0 0.0 0.0275
      vertex -0.44847759065022574 -0.28765366864730174 0.0275
      vertex -0.4473205080756888 -0.29 0.0275
    endloop
  endfacet
  facet normal 0.0 0.0 1.0
    outer loop
      vertex 0.0 0.0 0.0275
      vertex -0.4473205080756888 -0.29 0.0275
      vertex -0.4458670668058247 -0.29217522858017436 0.0275
    endloop
  endfacet
  facet normal 0.0 0.0 1.0
    outer loop
      vertex 0.0 0.0 0.0275
      vertex -0.4458670668058247 -0.29217522858017436 0.0275
      vertex -0.44414213562373095 -0.2941421356237309 0.0275
    endloop
  endfacet
  facet normal 0.0 0.0 1.0
    outer loop
      vertex 0.0 0.0 0.0275
      vertex -0.44414213562373095 -0.2941421356237309 0.0275
      vertex -0.44217522858017444 -0.29586706680582464 0.0275
    endloop
  endfacet
  facet normal 0.0 0.0 1.0
    outer loop
      vertex 0.0 0.0 0.0275
      vertex -0.44217522858017444 -0.29586706680582464 0.0275
      vertex -0.44 -0.2973205080756887 0.0275
    endloop
  endfacet
  facet normal 0.0 0.0 1.0
    outer loop
      vertex 0.0 0.0 0.0275
      vertex -0.44 -0.2973205080756887 0.0275
      vertex -0.4376536686473018 -0.2984775906502257 0.0275
    endloop
  endfacet
  facet normal 0.0 0.0 1.0
    outer loop
      vertex 0.0 0.0 0.0275
      vertex -0.4376536686473018 -0.2984775906502257 0.0275
      vertex -0.4351763809020504 -0.29931851652578134 0.0275
    endloop
  endfacet
  facet normal 0.0 0.0 1.0
    outer loop
      vertex 0.0 0.0 0.0275
      vertex -0.4351763809020504 -0.29931851652578134 0.0275
      vertex -0.432610523844401 -0.2998288972274762 0.0275
    endloop
  endfacet
  facet normal 0.0 0.0 1.0
    outer loop
      vertex 0.0 0.0 0.0275
      vertex -0.432610523844401 -0.2998288972274762 0.0275
      vertex -0.43 -0.3 0.0275
    endloop
  endfacet
  facet normal 0.0 0.0 1.0
    outer loop
      vertex 0.0 0.0 0.0275
      vertex -0.43 -0.3 0.0275
      vertex 0.43 -0.3 0.0275
    endloop
  endfacet
  facet normal 0.0 0.0 1.0
    outer loop
      vertex 0.0 0.0 0.0275
      vertex 0.43 -0.3 0.0275
      vertex 0.432610523844401 -0.2998288972274762 0.0275
    endloop
  endfacet
  facet normal 0.0 0.0 1.0
    outer loop
      vertex 0.0 0.0 0.0275
      vertex 0.432610523844401 -0.2998288972274762 0.0275
      vertex 0.4351763809020504 -0.29931851652578134 0.0275
    endloop
  endfacet
  facet normal 0.0 0.0 1.0
    outer loop
      vertex 0.0 0.0 0.0275
      vertex 0.4351763809020504 -0.29931851652578134 0.0275
      vertex 0.4376536686473018 -0.2984775906502257 0.0275
    endloop
  endfacet
  facet normal 0.0 0.0 1.0
    outer loop
      vertex 0.0 0.0 0.0275
      vertex 0.4376536686473018 -0.2984775906502257 0.0275
      vertex 0.44 -0.29732050807568877 0.0275
    endloop
  endfacet
  facet normal 0.0 0.0 1.0
    outer loop
      vertex 0.0 0.0 0.0275
      vertex 0.44 -0.29732050807568877 0.0275
      vertex 0.4421752285801744 -0.2958670668058247 0.0275
    endloop
  endfacet
  facet normal 0.0 0.0 1.0
    outer loop
      vertex 0.0 0.0 0.0275
      vertex 0.4421752285801744 -0.2958670668058247 0.0275
      vertex 0.44414213562373095 -0.2941421356237309 0.0275
    endloop
  endfacet
  facet normal 0.0 0.0 1.0
    outer loop
      vertex 0.0 0.0 0.0275
      vertex 0.44414213562373095 -0.2941421356237309 0.0275
      vertex 0.44586706680582466 -0.2921752285801744 0.0275
    endloop
  endfacet
  facet normal 0.0 0.0 1.0
    outer loop
      vertex 0.0 0.0 0.0275
      vertex 0.44586706680582466 -0.2921752285801744 0.0275
      vertex 0.44732050807568874 -0.29 0.0275
    endloop
  endfacet
  facet normal 0.0 0.0 1.0
    outer loop
      vertex 0.0 0.0 0.0275
      vertex 0.44732050807568874 -0.29 0.0275
      vertex 0.44847759065022574 -0.2876536686473018 0.0275
    endloop
  endfacet
  facet normal 0.0 0.0 1.0
    outer loop
      vertex 0.0 0.0 0.0275
      vertex 0.44847759065022574 -0.2876536686473018 0.0275
      vertex 0.44931851652578136 -0.2851763809020504 0.0275
    endloop
  endfacet
  facet normal 0.0 0.0 1.0
    outer loop
      vertex 0.0 0.0 0.0275
      vertex 0.44931851652578136 -0.2851763809020504 0.0275
      vertex 0.4498288972274762 -0.282610523844401 0.0275
    endloop
  endfacet
  facet normal 0.0 0.0 1.0
    outer loop
      vertex 0.0 0.0 0.0275
      vertex 0.4498288972274762 -0.282610523844401 0.0275
      vertex 0.45 -0.27999999999999997 0.0275
    endloop
  endfacet
  facet normal -0.0 0.0 1.0
    outer loop
      vertex 0.0 0.0 0.0275
      vertex 0.45 -0.27999999999999997 0.0275
      vertex 0.45 0.27999999999999997 0.0275
    endloop
  endfacet
  facet normal 0.0 0.0 -1.0
    outer loop
      vertex 0.0 0.0 -0.0275
      vertex 0.4498288972274762 0.282610523844401 -0.0275
      vertex 0.45 0.27999999999999997 -0.0275
    endloop
  endfacet
  facet normal 0.0 0.0 -1.0
    outer loop
      vertex 0.0 0.0 -0.0275
      vertex 0.44931851652578136 0.2851763809020504 -0.0275
      vertex 0.4498288972274762 0.282610523844401 -0.0275
    endloop
  endfacet
  facet normal 0.0 0.0 -1.0
    outer loop
      vertex 0.0 0.0 -0.0275
      vertex 0.44847759065022574 0.28765366864730174 -0.0275
      vertex 0.44931851652578136 0.2851763809020504 -0.0275
    endloop
  endfacet
  facet normal 0.0 0.0 -1.0
    outer loop
      vertex 0.0 0.0 -0.0275
      vertex 0.4473205080756888 0.29 -0.0275
      vertex 0.44847759065022574 0.28765366864730174 -0.0275
    endloop
  endfacet
  facet normal 0.0 0.0 -1.0
    outer loop
      vertex 0.0 0.0 -0.0275
      vertex 0.4458670668058247 0.29217522858017436 -0.0275
      vertex 0.4473205080756888 0.29 -0.0275
    endloop
  endfacet
  facet normal 0.0 0.0 -1.0
    outer loop
      vertex 0.0 0.0 -0.0275
      vertex 0.44414213562373095 0.2941421356237309 -0.0275
      vertex 0.4458670668058247 0.29217522858017436 -0.0275
    endloop
  endfacet
  facet normal 0.0 0.0 -1.0
    outer loop
      vertex 0.0 0.0 -0.0275
      vertex 0.4421752285801744 0.2958670668058247 -0.0275
      vertex 0.44414213562373095 0.2941421356237309 -0.0275
    endloop
  endfacet
  facet normal 0.0 0.0 -1.0
    outer loop
      vertex 0.0 0.0 -0.0275
      vertex 0.44 0.29732050807568877 -0.0275
      vertex 0.4421752285801744 0.2958670668058247 -0.0275
    endloop
  endfacet
  facet normal 0.0 0.0 -1.0
    outer loop
      vertex 0.0 0.0 -0.0275
      vertex 0.43765366864730176 0.2984775906502257 -0.0275
      vertex 0.44 0.29732050807568877 -0.0275
    endloop
  endfacet
  facet normal 0.0 0.0 -1.0
    outer loop
      vertex 0.0 0.0 -0.0275
      vertex 0.4351763809020504 0.29931851652578134 -0.0275
      vertex 0.43765366864730176 0.2984775906502257 -0.0275
    endloop
  endfacet
  facet normal 0.0 0.0 -1.0
    outer loop
      vertex 0.0 0.0 -0.0275
      vertex 0.432610523844401 0.2998288972274762 -0.0275
      vertex 0.4351763809020504 0.29931851652578134 -0.0275
    endloop
  endfacet
  facet normal 0.0 0.0 -1.0
    outer loop
      vertex 0.0 0.0 -0.0275
      vertex 0.43 0.3 -0.0275
      vertex 0.432610523844401 0.2998288972274762 -0.0275
    endloop
  endfacet
  facet normal 0.0 0.0 -1.0
    outer loop
      vertex 0.0 0.0 -0.0275
      vertex -0.43 0.3 -0.0275
      vertex 0.43 0.3 -0.0275
    endloop
  endfacet
  facet normal 0.0 0.0 -1.0
    outer loop
      vertex 0.0 0.0 -0.0275
      vertex -0.432610523844401 0.2998288972274762 -0.0275
      vertex -0.43 0.3 -0.0275
    endloop
  endfacet
  facet normal 0.0 0.0 -1.0
    outer loop
      vertex 0.0 0.0 -0.0275
      vertex -0.4351763809020504 0.29931851652578134 -0.0275
      vertex -0.432610523844401 0.2998288972274762 -0.0275
    endloop
  endfacet
  facet normal 0.0 0.0 -1.0
    outer loop
      vertex 0.0 0.0 -0.0275
      vertex -0.43765366864730176 0.2984775906502257 -0.0275
      vertex -0.4351763809020504 0.29931851652578134 -0.0275
    endloop
  endfacet
  facet normal 0.0 0.0 -1.0
    outer loop
      vertex 0.0 0.0 -0.0275
      vertex -0.44 0.29732050807568877 -0.0275
      vertex -0.43765366864730176 0.2984775906502257 -0.0275
    endloop
  endfacet
  facet normal 0.0 0.0 -1.0
    outer loop
      vertex 0.0 0.0 -0.0275
      vertex -0.4421752285801744 0.2958670668058247 -0.0275
      vertex -0.44 0.29732050807568877 -0.0275
    endloop
  endfacet
  facet normal 0.0 0.0 -1.0
    outer loop
      vertex 0.0 0.0 -0.0275
      vertex -0.44414213562373095 0.2941421356237309 -0.0275
      vertex -0.4421752285801744 0.2958670668058247 -0.0275
    endloop
  endfacet
  facet normal 0.0 0.0 -1.0
    outer loop
      vertex 0.0 0.0 -0.0275
      vertex -0.4458670668058247 0.2921752285801744 -0.0275
      vertex -0.44414213562373095 0.2941421356237309 -0.0275
    endloop
  endfacet
  facet normal 0.0 0.0 -1.0
    outer loop
      vertex 0.0 0.0 -0.0275
      vertex -0.44732050807568874 0.29 -0.0275
      vertex -0.4458670668058247 0.2921752285801744 -0.0275
    endloop
  endfacet
  facet normal 0.0 0.0 -1.0
    outer loop
      vertex 0.0 0.0 -0.0275
      vertex -0.44847759065022574 0.2876536686473018 -0.0275
      vertex -0.44732050807568874 0.29 -0.0275
    endloop
  endfacet
  facet normal 0.0 0.0 -1.0
    outer loop
      vertex 0.0 0.0 -0.0275
      vertex -0.44931851652578136 0.2851763809020504 -0.0275
      vertex -0.44847759065022574 0.2876536686473018 -0.0275
    endloop
  endfacet
  facet normal 0.0 0.0 -1.0
    outer loop
      vertex 0.0 0.0 -0.0275
      vertex -0.4498288972274762 0.282610523844401 -0.0275
      vertex -0.44931851652578136 0.2851763809020504 -0.0275
    endloop
  endfacet
  facet normal 0.0 0.0 -1.0
    outer loop
      vertex 0.0 0.0 -0.0275
      vertex -0.45 0.27999999999999997 -0.0275
      vertex -0.4498288972274762 0.282610523844401 -0.0275
    endloop
  endfacet
  facet normal -0.0 0.0 -1.0
    outer loop
      vertex 0.0 0.0 -0.0275
      vertex -0.45 -0.27999999999999997 -0.0275
      vertex -0.45 0.27999999999999997 -0.0275
    endloop
  endfacet
  facet normal 0.0 0.0 -1.0
    outer loop
      vertex 0.0 0.0 -0.0275
      vertex -0.4498288972274762 -0.282610523844401 -0.0275
      vertex -0.45 -0.27999999999999997 -0.0275
    endloop
  endfacet
  facet normal 0.0 0.0 -1.0
    outer loop
      vertex 0.0 0.0 -0.0275
      vertex -0.44931851652578136 -0.2851763809020504 -0.0275
      vertex -0.4498288972274762 -0.282610523844401 -0.0275
    endloop
  endfacet
  facet normal 0.0 0.0 -1.0
    outer loop
      vertex 0.0 0.0 -0.0275
      vertex -0.44847759065022574 -0.28765366864730174 -0.0275
      vertex -0.44931851652578136 -0.2851763809020504 -0.0275
    endloop
  endfacet
  facet normal 0.0 0.0 -1.0
    outer loop
      vertex 0.0 0.0 -0.0275
      vertex -0.4473205080756888 -0.29 -0.0275
      vertex -0.44847759065022574 -0.28765366864730174 -0.0275
    endloop
  endfacet
  facet normal 0.0 0.0 -1.0
    outer loop
      vertex 0.0 0.0 -0.0275
      vertex -0.4458670668058247 -0.29217522858017436 -0.0275
      vertex -0.4473205080756888 -0.29 -0.0275
    endloop
  endfacet
  facet normal 0.0 0.0 -1.0
    outer loop
      vertex 0.0 0.0 -0.0275
      vertex -0.44414213562373095 -0.2941421356237309 -0.0275
      vertex -0.4458670668058247 -0.29217522858017436 -0.0275
    endloop
  endfacet
  facet normal 0.0 0.0 -1.0
    outer loop
      vertex 0.0 0.0 -0.0275
      vertex -0.44217522858017444 -0.29586706680582464 -0.0275
      vertex -0.44414213562373095 -0.2941421356237309 -0.0275
    endloop
  endfacet
  facet normal 0.0 0.0 -1.0
    outer loop
      vertex 0.0 0.0 -0.0275
      vertex -0.44 -0.2973205080756887 -0.0275
      vertex -0.44217522858017444 -0.29586706680582464 -0.0275
    endloop
  endfacet
  facet normal 0.0 0.0 -1.0
    outer loop
      vertex 0.0 0.0 -0.0275
      vertex -0.4376536686473018 -0.2984775906502257 -0.0275
      vertex -0.44 -0.2973205080756887 -0.0275
    endloop
  endfacet
  facet normal 0.0 0.0 -1.0
    outer loop
      vertex 0.0 0.0 -0.0275
      vertex -0.4351763809020504 -0.29931851652578134 -0.0275
      vertex -0.4376536686473018 -0.2984775906502257 -0.0275
    endloop
  endfacet
  facet normal 0.0 0.0 -1.0
    outer loop
      vertex 0.0 0.0 -0.0275
      vertex -0.432610523844401 -0.2998288972274762 -0.0275
      vertex -0.4351763809020504 -0.29931851652578134 -0.0275
    endloop
  endfacet
  facet normal 0.0 0.0 -1.0
    outer loop
      vertex 0.0 0.0 -0.0275
      vertex -0.43 -0.3 -0.0275
      vertex -0.432610523844401 -0.2998288972274762 -0.0275
    endloop
  endfacet
  facet normal 0.0 -0.0 -1.0
    outer loop
      vertex 0.0 0.0 -0.0275
      vertex 0.43 -0.3 -0.0275
      vertex -0.43 -0.3 -0.0275
    endloop
  endfacet
  facet normal 0.0 0.0 -1.0
    outer loop
      vertex 0.0 0.0 -0.0275
      vertex 0.432610523844401 -0.2998288972274762 -0.0275
      vertex 0.43 -0.3 -0.0275
    endloop
  endfacet
  facet normal 0.0 0.0 -1.0
    outer loop
      vertex 0.0 0.0 -0.0275
      vertex 0.4351763809020504 -0.29931851652578134 -0.0275
      vertex 0.432610523844401 -0.2998288972274762 -0.0275
    endloop
  endfacet
  facet normal 0.0 0.0 -1.0
    outer loop
      vertex 0.0 0.0 -0.0275
      vertex 0.4376536686473018 -0.2984775906502257 -0.0275
      vertex 0.4351763809020504 -0.29931851652578134 -0.0275
    endloop
  endfacet
  facet normal 0.0 0.0 -1.0
    outer loop
      vertex 0.0 0.0 -0.0275
      vertex 0.44 -0.29732050807568877 -0.0275
      vertex 0.4376536686473018 -0.2984775906502257 -0.0275
    endloop
  endfacet
  facet normal 0.0 0.0 -1.0
    outer loop
      vertex 0.0 0.0 -0.0275
      vertex 0.4421752285801744 -0.2958670668058247 -0.0275
      vertex 0.44 -0.29732050807568877 -0.0275
    endloop
  endfacet
  facet normal 0.0 0.0 -1.0
    outer loop
      vertex 0.0 0.0 -0.0275
      vertex 0.44414213562373095 -0.2941421356237309 -0.0275
      vertex 0.4421752285801744 -0.2958670668058247 -0.0275
    endloop
  endfacet
  facet normal 0.0 0.0 -1.0
    outer loop
      vertex 0.0 0.0 -0.0275
      vertex 0.44586706680582466 -0.2921752285801744 -0.0275
      vertex 0.44414213562373095 -0.2941421356237309 -0.0275
    endloop
  endfacet
  facet normal 0.0 0.0 -1.0
    outer loop
      vertex 0.0 0.0 -0.0275
      vertex 0.44732050807568874 -0.29 -0.0275
      vertex 0.44586706680582466 -0.2921752285801744 -0.0275
    endloop
  endfacet
  facet normal 0.0 0.0 -1.0
    outer loop
      vertex 0.0 0.0 -0.0275
      vertex 0.44847759065022574 -0.2876536686473018 -0.0275
      vertex 0.44732050807568874 -0.29 -0.0275
    endloop
  endfacet
  facet normal 0.0 0.0 -1.0
    outer loop
      vertex 0.0 0.0 -0.0275
      vertex 0.44931851652578136 -0.2851763809020504 -0.0275
      vertex 0.44847759065022574 -0.2876536686473018 -0.0275
    endloop
  endfacet
  facet normal 0.0 0.0 -1.0
    outer loop
      vertex 0.0 0.0 -0.0275
      vertex 0.4498288972274762 -0.282610523844401 -0.0275
      vertex 0.44931851652578136 -0.2851763809020504 -0.0275
    endloop
  endfacet
  facet normal 0.0 0.0 -1.0
    outer loop
      vertex 0.0 0.0 -0.0275
      vertex 0.45 -0.27999999999999997 -0.0275
      vertex 0.4498288972274762 -0.282610523844401 -0.0275
    endloop
  endfacet
  facet normal 0.0 0.0 -1.0
    outer loop
      vertex 0.0 0.0 -0.0275
      vertex 0.45 0.27999999999999997 -0.0275
      vertex 0.45 -0.27999999999999997 -0.0275
    endloop
  endfacet
  facet normal 0.9978589232386033 0.06540312923014684 0.0
    outer loop
      vertex 0.45 0.27999999999999997 -0.0275
      vertex 0.4498288972274762 0.282610523844401 -0.0275
      vertex 0.4498288972274762 0.282610523844401 0.0275
    endloop
  endfacet
  facet normal 0.9978589232386033 0.06540312923014684 -0.0
    outer loop
      vertex 0.45 0.27999999999999997 -0.0275
      vertex 0.4498288972274762 0.282610523844401 0.0275
      vertex 0.45 0.27999999999999997 0.0275
    endloop
  endfacet
  facet normal 0.9807852804032303 0.19509032201612905 0.0
    outer loop
      vertex 0.4498288972274762 0.282610523844401 -0.0275
      vertex 0.44931851652578136 0.2851763809020504 -0.0275
      vertex 0.44931851652578136 0.2851763809020504 0.0275
    endloop
  endfacet
  facet normal 0.9807852804032303 0.19509032201612905 -0.0
    outer loop
      vertex 0.4498288972274762 0.282610523844401 -0.0275
      vertex 0.44931851652578136 0.2851763809020504 0.0275
      vertex 0.4498288972274762 0.282610523844401 0.0275
    endloop
  endfacet
  facet normal 0.9469301294951058 0.3214394653031609 0.0
    outer loop
      vertex 0.44931851652578136 0.2851763809020504 -0.0275
      vertex 0.44847759065022574 0.28765366864730174 -0.0275
      vertex 0.44847759065022574 0.28765366864730174 0.0275
    endloop
  endfacet
  facet normal 0.9469301294951058 0.3214394653031609 -0.0
    outer loop
      vertex 0.44931851652578136 0.2851763809020504 -0.0275
      vertex 0.44847759065022574 0.28765366864730174 0.0275
      vertex 0.44931851652578136 0.2851763809020504 0.0275
    endloop
  endfacet
  facet normal 0.8968727415326928 0.4422886902189922 0.0
    outer loop
      vertex 0.44847759065022574 0.28765366864730174 -0.0275
      vertex 0.4473205080756888 0.29 -0.0275
      vertex 0.4473205080756888 0.29 0.0275
    endloop
  endfacet
  facet normal 0.8968727415326928 0.4422886902189922 -0.0
    outer loop
      vertex 0.44847759065022574 0.28765366864730174 -0.0275
      vertex 0.4473205080756888 0.29 0.0275
      vertex 0.44847759065022574 0.28765366864730174 0.0275
    endloop
  endfacet
  facet normal 0.8314696123025407 0.5555702330196093 0.0
    outer loop
      vertex 0.4473205080756888 0.29 -0.0275
      vertex 0.4458670668058247 0.29217522858017436 -0.0275
      vertex 0.4458670668058247 0.29217522858017436 0.0275
    endloop
  endfacet
  facet normal 0.8314696123025407 0.5555702330196093 -0.0
    outer loop
      vertex 0.4473205080756888 0.29 -0.0275
      vertex 0.4458670668058247 0.29217522858017436 0.0275
      vertex 0.4473205080756888 0.29 0.0275
    endloop
  endfacet
  facet normal 0.7518398074789787 0.6593458151000673 0.0
    outer loop
      vertex 0.4458670668058247 0.29217522858017436 -0.0275
      vertex 0.44414213562373095 0.2941421356237309 -0.0275
      vertex 0.44414213562373095 0.2941421356237309 0.0275
    endloop
  endfacet
  facet normal 0.7518398074789787 0.6593458151000673 -0.0
    outer loop
      vertex 0.4458670668058247 0.29217522858017436 -0.0275
      vertex 0.44414213562373095 0.2941421356237309 0.0275
      vertex 0.4458670668058247 0.29217522858017436 0.0275
    endloop
  endfacet
  facet normal 0.6593458151000673 0.7518398074789787 0.0
    outer loop
      vertex 0.44414213562373095 0.2941421356237309 -0.0275
      vertex 0.4421752285801744 0.2958670668058247 -0.0275
      vertex 0.4421752285801744 0.2958670668058247 0.0275
    endloop
  endfacet
  facet normal 0.6593458151000673 0.7518398074789787 -0.0
    outer loop
      vertex 0.44414213562373095 0.2941421356237309 -0.0275
      vertex 0.4421752285801744 0.2958670668058247 0.0275
      vertex 0.44414213562373095 0.2941421356237309 0.0275
    endloop
  endfacet
  facet normal 0.5555702330196093 0.8314696123025407 0.0
    outer loop
      vertex 0.4421752285801744 0.2958670668058247 -0.0275
      vertex 0.44 0.29732050807568877 -0.0275
      vertex 0.44 0.29732050807568877 0.0275
    endloop
  endfacet
  facet normal 0.5555702330196093 0.8314696123025407 -0.0
    outer loop
      vertex 0.4421752285801744 0.2958670668058247 -0.0275
      vertex 0.44 0.29732050807568877 0.0275
      vertex 0.4421752285801744 0.2958670668058247 0.0275
    endloop
  endfacet
  facet normal 0.4422886902189922 0.8968727415326928 0.0
    outer loop
      vertex 0.44 0.29732050807568877 -0.0275
      vertex 0.43765366864730176 0.2984775906502257 -0.0275
      vertex 0.43765366864730176 0.2984775906502257 0.0275
    endloop
  endfacet
  facet normal 0.4422886902189922 0.8968727415326928 -0.0
    outer loop
      vertex 0.44 0.29732050807568877 -0.0275
      vertex 0.43765366864730176 0.2984775906502257 0.0275
      vertex 0.44 0.29732050807568877 0.0275
    endloop
  endfacet
  facet normal 0.3214394653031609 0.9469301294951058 0.0
    outer loop
      vertex 0.43765366864730176 0.2984775906502257 -0.0275
      vertex 0.4351763809020504 0.29931851652578134 -0.0275
      vertex 0.4351763809020504 0.29931851652578134 0.0275
    endloop
  endfacet
  facet normal 0.3214394653031609 0.9469301294951058 -0.0
    outer loop
      vertex 0.43765366864730176 0.2984775906502257 -0.0275
      vertex 0.4351763809020504 0.29931851652578134 0.0275
      vertex 0.43765366864730176 0.2984775906502257 0.0275
    endloop
  endfacet
  facet normal 0.19509032201612905 0.9807852804032303 0.0
    outer loop
      vertex 0.4351763809020504 0.29931851652578134 -0.0275
      vertex 0.432610523844401 0.2998288972274762 -0.0275
      vertex 0.432610523844401 0.2998288972274762 0.0275
    endloop
  endfacet
  facet normal 0.19509032201612905 0.9807852804032303 -0.0
    outer loop
      vertex 0.4351763809020504 0.29931851652578134 -0.0275
      vertex 0.432610523844401 0.2998288972274762 0.0275
      vertex 0.4351763809020504 0.29931851652578134 0.0275
    endloop
  endfacet
  facet normal 0.06540312923014684 0.9978589232386033 0.0
    outer loop
      vertex 0.432610523844401 0.2998288972274762 -0.0275
      vertex 0.43 0.3 -0.0275
      vertex 0.43 0.3 0.0275
    endloop
  endfacet
  facet normal 0.06540312923014684 0.9978589232386033 -0.0
    outer loop
      vertex 0.432610523844401 0.2998288972274762 -0.0275
      vertex 0.43 0.3 0.0275
      vertex 0.432610523844401 0.2998288972274762 0.0275
    endloop
  endfacet
  facet normal 0.0 1.0 0.0
    outer loop
      vertex 0.43 0.3 -0.0275
      vertex -0.43 0.3 -0.0275
      vertex -0.43 0.3 0.0275
    endloop
  endfacet
  facet normal 0.0 1.0 -0.0
    outer loop
      vertex 0.43 0.3 -0.0275
      vertex -0.43 0.3 0.0275
      vertex 0.43 0.3 0.0275
    endloop
  endfacet
  facet normal -0.06540312923014684 0.9978589232386033 0.0
    outer loop
      vertex -0.43 0.3 -0.0275
      vertex -0.432610523844401 0.2998288972274762 -0.0275
      vertex -0.432610523844401 0.2998288972274762 0.0275
    endloop
  endfacet
  facet normal -0.06540312923014684 0.9978589232386033 0.0
    outer loop
      vertex -0.43 0.3 -0.0275
      vertex -0.432610523844401 0.2998288972274762 0.0275
      vertex -0.43 0.3 0.0275
    endloop
  endfacet
  facet normal -0.19509032201612905 0.9807852804032303 0.0
    outer loop
      vertex -0.432610523844401 0.2998288972274762 -0.0275
      vertex -0.4351763809020504 0.29931851652578134 -0.0275
      vertex -0.4351763809020504 0.29931851652578134 0.0275
    endloop
  endfacet
  facet normal -0.19509032201612905 0.9807852804032303 0.0
    outer loop
      vertex -0.432610523844401 0.2998288972274762 -0.0275
      vertex -0.4351763809020504 0.29931851652578134 0.0275
      vertex -0.432610523844401 0.2998288972274762 0.0275
    endloop
  endfacet
  facet normal -0.3214394653031609 0.9469301294951058 0.0
    outer loop
      vertex -0.4351763809020504 0.29931851652578134 -0.0275
      vertex -0.43765366864730176 0.2984775906502257 -0.0275
      vertex -0.43765366864730176 0.2984775906502257 0.0275
    endloop
  endfacet
  facet normal -0.3214394653031609 0.9469301294951058 0.0
    outer loop
      vertex -0.4351763809020504 0.29931851652578134 -0.0275
      vertex -0.43765366864730176 0.2984775906502257 0.0275
      vertex -0.4351763809020504 0.29931851652578134 0.0275
    endloop
  endfacet
  facet normal -0.4422886902189922 0.8968727415326928 0.0
    outer loop
      vertex -0.43765366864730176 0.2984775906502257 -0.0275
      vertex -0.44 0.29732050807568877 -0.0275
      vertex -0.44 0.29732050807568877 0.0275
    endloop
  endfacet
  facet normal -0.4422886902189922 0.8968727415326928 0.0
    outer loop
      vertex -0.43765366864730176 0.2984775906502257 -0.0275
      vertex -0.44 0.29732050807568877 0.0275
      vertex -0.43765366864730176 0.2984775906502257 0.0275
    endloop
  endfacet
  facet normal -0.5555702330196093 0.8314696123025407 0.0
    outer loop
      vertex -0.44 0.29732050807568877 -0.0275
      vertex -0.4421752285801744 0.2958670668058247 -0.0275
      vertex -0.4421752285801744 0.2958670668058247 0.0275
    endloop
  endfacet
  facet normal -0.5555702330196093 0.8314696123025407 0.0
    outer loop
      vertex -0.44 0.29732050807568877 -0.0275
      vertex -0.4421752285801744 0.2958670668058247 0.0275
      vertex -0.44 0.29732050807568877 0.0275
    endloop
  endfacet
  facet normal -0.6593458151000673 0.7518398074789787 0.0
    outer loop
      vertex -0.4421752285801744 0.2958670668058247 -0.0275
      vertex -0.44414213562373095 0.2941421356237309 -0.0275
      vertex -0.44414213562373095 0.2941421356237309 0.0275
    endloop
  endfacet
  facet normal -0.6593458151000673 0.7518398074789787 0.0
    outer loop
      vertex -0.4421752285801744 0.2958670668058247 -0.0275
      vertex -0.44414213562373095 0.2941421356237309 0.0275
      vertex -0.4421752285801744 0.2958670668058247 0.0275
    endloop
  endfacet
  facet normal -0.7518398074789695 0.6593458151000777 0.0
    outer loop
      vertex -0.44414213562373095 0.2941421356237309 -0.0275
      vertex -0.4458670668058247 0.2921752285801744 -0.0275
      vertex -0.4458670668058247 0.2921752285801744 0.0275
    endloop
  endfacet
  facet normal -0.7518398074789695 0.6593458151000777 0.0
    outer loop
      vertex -0.44414213562373095 0.2941421356237309 -0.0275
      vertex -0.4458670668058247 0.2921752285801744 0.0275
      vertex -0.44414213562373095 0.2941421356237309 0.0275
    endloop
  endfacet
  facet normal -0.8314696123025569 0.5555702330195846 0.0
    outer loop
      vertex -0.4458670668058247 0.2921752285801744 -0.0275
      vertex -0.44732050807568874 0.29 -0.0275
      vertex -0.44732050807568874 0.29 0.0275
    endloop
  endfacet
  facet normal -0.8314696123025569 0.5555702330195846 0.0
    outer loop
      vertex -0.4458670668058247 0.2921752285801744 -0.0275
      vertex -0.44732050807568874 0.29 0.0275
      vertex -0.4458670668058247 0.2921752285801744 0.0275
    endloop
  endfacet
  facet normal -0.8968727415326802 0.4422886902190176 0.0
    outer loop
      vertex -0.44732050807568874 0.29 -0.0275
      vertex -0.44847759065022574 0.2876536686473018 -0.0275
      vertex -0.44847759065022574 0.2876536686473018 0.0275
    endloop
  endfacet
  facet normal -0.8968727415326802 0.4422886902190176 0.0
    outer loop
      vertex -0.44732050807568874 0.29 -0.0275
      vertex -0.44847759065022574 0.2876536686473018 0.0275
      vertex -0.44732050807568874 0.29 0.0275
    endloop
  endfacet
  facet normal -0.946930129495108 0.3214394653031545 0.0
    outer loop
      vertex -0.44847759065022574 0.2876536686473018 -0.0275
      vertex -0.44931851652578136 0.2851763809020504 -0.0275
      vertex -0.44931851652578136 0.2851763809020504 0.0275
    endloop
  endfacet
  facet normal -0.946930129495108 0.3214394653031545 0.0
    outer loop
      vertex -0.44847759065022574 0.2876536686473018 -0.0275
      vertex -0.44931851652578136 0.2851763809020504 0.0275
      vertex -0.44847759065022574 0.2876536686473018 0.0275
    endloop
  endfacet
  facet normal -0.9807852804032303 0.19509032201612905 0.0
    outer loop
      vertex -0.44931851652578136 0.2851763809020504 -0.0275
      vertex -0.4498288972274762 0.282610523844401 -0.0275
      vertex -0.4498288972274762 0.282610523844401 0.0275
    endloop
  endfacet
  facet normal -0.9807852804032303 0.19509032201612905 0.0
    outer loop
      vertex -0.44931851652578136 0.2851763809020504 -0.0275
      vertex -0.4498288972274762 0.282610523844401 0.0275
      vertex -0.44931851652578136 0.2851763809020504 0.0275
    endloop
  endfacet
  facet normal -0.9978589232386033 0.06540312923014684 0.0
    outer loop
      vertex -0.4498288972274762 0.282610523844401 -0.0275
      vertex -0.45 0.27999999999999997 -0.0275
      vertex -0.45 0.27999999999999997 0.0275
    endloop
  endfacet
  facet normal -0.9978589232386033 0.06540312923014684 0.0
    outer loop
      vertex -0.4498288972274762 0.282610523844401 -0.0275
      vertex -0.45 0.27999999999999997 0.0275
      vertex -0.4498288972274762 0.282610523844401 0.0275
    endloop
  endfacet
  facet normal -1.0 0.0 0.0
    outer loop
      vertex -0.45 0.27999999999999997 -0.0275
      vertex -0.45 -0.27999999999999997 -0.0275
      vertex -0.45 -0.27999999999999997 0.0275
    endloop
  endfacet
  facet normal -1.0 0.0 0.0
    outer loop
      vertex -0.45 0.27999999999999997 -0.0275
      vertex -0.45 -0.27999999999999997 0.0275
      vertex -0.45 0.27999999999999997 0.0275
    endloop
  endfacet
  facet normal -0.9978589232386033 -0.06540312923014684 0.0
    outer loop
      vertex -0.45 -0.27999999999999997 -0.0275
      vertex -0.4498288972274762 -0.282610523844401 -0.0275
      vertex -0.4498288972274762 -0.282610523844401 0.0275
    endloop
  endfacet
  facet normal -0.9978589232386033 -0.06540312923014684 0.0
    outer loop
      vertex -0.45 -0.27999999999999997 -0.0275
      vertex -0.4498288972274762 -0.282610523844401 0.0275
      vertex -0.45 -0.27999999999999997 0.0275
    endloop
  endfacet
  facet normal -0.9807852804032303 -0.19509032201612905 0.0
    outer loop
      vertex -0.4498288972274762 -0.282610523844401 -0.0275
      vertex -0.44931851652578136 -0.2851763809020504 -0.0275
      vertex -0.44931851652578136 -0.2851763809020504 0.0275
    endloop
  endfacet
  facet normal -0.9807852804032303 -0.19509032201612905 0.0
    outer loop
      vertex -0.4498288972274762 -0.282610523844401 -0.0275
      vertex -0.44931851652578136 -0.2851763809020504 0.0275
      vertex -0.4498288972274762 -0.282610523844401 0.0275
    endloop
  endfacet
  facet normal -0.9469301294951058 -0.3214394653031609 0.0
    outer loop
      vertex -0.44931851652578136 -0.2851763809020504 -0.0275
      vertex -0.44847759065022574 -0.28765366864730174 -0.0275
      vertex -0.44847759065022574 -0.28765366864730174 0.0275
    endloop
  endfacet
  facet normal -0.9469301294951058 -0.3214394653031609 0.0
    outer loop
      vertex -0.44931851652578136 -0.2851763809020504 -0.0275
      vertex -0.44847759065022574 -0.28765366864730174 0.0275
      vertex -0.44931851652578136 -0.2851763809020504 0.0275
    endloop
  endfacet
  facet normal -0.8968727415326928 -0.4422886902189922 0.0
    outer loop
      vertex -0.44847759065022574 -0.28765366864730174 -0.0275
      vertex -0.4473205080756888 -0.29 -0.0275
      vertex -0.4473205080756888 -0.29 0.0275
    endloop
  endfacet
  facet normal -0.8968727415326928 -0.4422886902189922 0.0
    outer loop
      vertex -0.44847759065022574 -0.28765366864730174 -0.0275
      vertex -0.4473205080756888 -0.29 0.0275
      vertex -0.44847759065022574 -0.28765366864730174 0.0275
    endloop
  endfacet
  facet normal -0.8314696123025407 -0.5555702330196093 0.0
    outer loop
      vertex -0.4473205080756888 -0.29 -0.0275
      vertex -0.4458670668058247 -0.29217522858017436 -0.0275
      vertex -0.4458670668058247 -0.29217522858017436 0.0275
    endloop
  endfacet
  facet normal -0.8314696123025407 -0.5555702330196093 0.0
    outer loop
      vertex -0.4473205080756888 -0.29 -0.0275
      vertex -0.4458670668058247 -0.29217522858017436 0.0275
      vertex -0.4473205080756888 -0.29 0.0275
    endloop
  endfacet
  facet normal -0.7518398074789787 -0.6593458151000673 0.0
    outer loop
      vertex -0.4458670668058247 -0.29217522858017436 -0.0275
      vertex -0.44414213562373095 -0.2941421356237309 -0.0275
      vertex -0.44414213562373095 -0.2941421356237309 0.0275
    endloop
  endfacet
  facet normal -0.7518398074789787 -0.6593458151000673 0.0
    outer loop
      vertex -0.4458670668058247 -0.29217522858017436 -0.0275
      vertex -0.44414213562373095 -0.2941421356237309 0.0275
      vertex -0.4458670668058247 -0.29217522858017436 0.0275
    endloop
  endfacet
  facet normal -0.6593458151000658 -0.75183980747898 0.0
    outer loop
      vertex -0.44414213562373095 -0.2941421356237309 -0.0275
      vertex -0.44217522858017444 -0.29586706680582464 -0.0275
      vertex -0.44217522858017444 -0.29586706680582464 0.0275
    endloop
  endfacet
  facet normal -0.6593458151000658 -0.75183980747898 0.0
    outer loop
      vertex -0.44414213562373095 -0.2941421356237309 -0.0275
      vertex -0.44217522858017444 -0.29586706680582464 0.0275
      vertex -0.44414213562373095 -0.2941421356237309 0.0275
    endloop
  endfacet
  facet normal -0.5555702330195994 -0.8314696123025472 0.0
    outer loop
      vertex -0.44217522858017444 -0.29586706680582464 -0.0275
      vertex -0.44 -0.2973205080756887 -0.0275
      vertex -0.44 -0.2973205080756887 0.0275
    endloop
  endfacet
  facet normal -0.5555702330195994 -0.8314696123025472 0.0
    outer loop
      vertex -0.44217522858017444 -0.29586706680582464 -0.0275
      vertex -0.44 -0.2973205080756887 0.0275
      vertex -0.44217522858017444 -0.29586706680582464 0.0275
    endloop
  endfacet
  facet normal -0.4422886902190176 -0.8968727415326802 0.0
    outer loop
      vertex -0.44 -0.2973205080756887 -0.0275
      vertex -0.4376536686473018 -0.2984775906502257 -0.0275
      vertex -0.4376536686473018 -0.2984775906502257 0.0275
    endloop
  endfacet
  facet normal -0.4422886902190176 -0.8968727415326802 0.0
    outer loop
      vertex -0.44 -0.2973205080756887 -0.0275
      vertex -0.4376536686473018 -0.2984775906502257 0.0275
      vertex -0.44 -0.2973205080756887 0.0275
    endloop
  endfacet
  facet normal -0.3214394653031545 -0.946930129495108 0.0
    outer loop
      vertex -0.4376536686473018 -0.2984775906502257 -0.0275
      vertex -0.4351763809020504 -0.29931851652578134 -0.0275
      vertex -0.4351763809020504 -0.29931851652578134 0.0275
    endloop
  endfacet
  facet normal -0.3214394653031545 -0.946930129495108 0.0
    outer loop
      vertex -0.4376536686473018 -0.2984775906502257 -0.0275
      vertex -0.4351763809020504 -0.29931851652578134 0.0275
      vertex -0.4376536686473018 -0.2984775906502257 0.0275
    endloop
  endfacet
  facet normal -0.19509032201612905 -0.9807852804032303 0.0
    outer loop
      vertex -0.4351763809020504 -0.29931851652578134 -0.0275
      vertex -0.432610523844401 -0.2998288972274762 -0.0275
      vertex -0.432610523844401 -0.2998288972274762 0.0275
    endloop
  endfacet
  facet normal -0.19509032201612905 -0.9807852804032303 0.0
    outer loop
      vertex -0.4351763809020504 -0.29931851652578134 -0.0275
      vertex -0.432610523844401 -0.2998288972274762 0.0275
      vertex -0.4351763809020504 -0.29931851652578134 0.0275
    endloop
  endfacet
  facet normal -0.06540312923014684 -0.9978589232386033 0.0
    outer loop
      vertex -0.432610523844401 -0.2998288972274762 -0.0275
      vertex -0.43 -0.3 -0.0275
      vertex -0.43 -0.3 0.0275
    endloop
  endfacet
  facet normal -0.06540312923014684 -0.9978589232386033 0.0
    outer loop
      vertex -0.432610523844401 -0.2998288972274762 -0.0275
      vertex -0.43 -0.3 0.0275
      vertex -0.432610523844401 -0.2998288972274762 0.0275
    endloop
  endfacet
  facet normal 0.0 -1.0 0.0
    outer loop
      vertex -0.43 -0.3 -0.0275
      vertex 0.43 -0.3 -0.0275
      vertex 0.43 -0.3 0.0275
    endloop
  endfacet
  facet normal 0.0 -1.0 0.0
    outer loop
      vertex -0.43 -0.3 -0.0275
      vertex 0.43 -0.3 0.0275
      vertex -0.43 -0.3 0.0275
    endloop
  endfacet
  facet normal 0.06540312923014684 -0.9978589232386033 0.0
    outer loop
      vertex 0.43 -0.3 -0.0275
      vertex 0.432610523844401 -0.2998288972274762 -0.0275
      vertex 0.432610523844401 -0.2998288972274762 0.0275
    endloop
  endfacet
  facet normal 0.06540312923014684 -0.9978589232386033 0.0
    outer loop
      vertex 0.43 -0.3 -0.0275
      vertex 0.432610523844401 -0.2998288972274762 0.0275
      vertex 0.43 -0.3 0.0275
    endloop
  endfacet
  facet normal 0.19509032201612905 -0.9807852804032303 0.0
    outer loop
      vertex 0.432610523844401 -0.2998288972274762 -0.0275
      vertex 0.4351763809020504 -0.29931851652578134 -0.0275
      vertex 0.4351763809020504 -0.29931851652578134 0.0275
    endloop
  endfacet
  facet normal 0.19509032201612905 -0.9807852804032303 0.0
    outer loop
      vertex 0.432610523844401 -0.2998288972274762 -0.0275
      vertex 0.4351763809020504 -0.29931851652578134 0.0275
      vertex 0.432610523844401 -0.2998288972274762 0.0275
    endloop
  endfacet
  facet normal 0.3214394653031545 -0.946930129495108 0.0
    outer loop
      vertex 0.4351763809020504 -0.29931851652578134 -0.0275
      vertex 0.4376536686473018 -0.2984775906502257 -0.0275
      vertex 0.4376536686473018 -0.2984775906502257 0.0275
    endloop
  endfacet
  facet normal 0.3214394653031545 -0.946930129495108 0.0
    outer loop
      vertex 0.4351763809020504 -0.29931851652578134 -0.0275
      vertex 0.4376536686473018 -0.2984775906502257 0.0275
      vertex 0.4351763809020504 -0.29931851652578134 0.0275
    endloop
  endfacet
  facet normal 0.4422886902190006 -0.8968727415326886 0.0
    outer loop
      vertex 0.4376536686473018 -0.2984775906502257 -0.0275
      vertex 0.44 -0.29732050807568877 -0.0275
      vertex 0.44 -0.29732050807568877 0.0275
    endloop
  endfacet
  facet normal 0.4422886902190006 -0.8968727415326886 0.0
    outer loop
      vertex 0.4376536686473018 -0.2984775906502257 -0.0275
      vertex 0.44 -0.29732050807568877 0.0275
      vertex 0.4376536686473018 -0.2984775906502257 0.0275
    endloop
  endfacet
  facet normal 0.5555702330196093 -0.8314696123025407 0.0
    outer loop
      vertex 0.44 -0.29732050807568877 -0.0275
      vertex 0.4421752285801744 -0.2958670668058247 -0.0275
      vertex 0.4421752285801744 -0.2958670668058247 0.0275
    endloop
  endfacet
  facet normal 0.5555702330196093 -0.8314696123025407 0.0
    outer loop
      vertex 0.44 -0.29732050807568877 -0.0275
      vertex 0.4421752285801744 -0.2958670668058247 0.0275
      vertex 0.44 -0.29732050807568877 0.0275
    endloop
  endfacet
  facet normal 0.6593458151000673 -0.7518398074789787 0.0
    outer loop
      vertex 0.4421752285801744 -0.2958670668058247 -0.0275
      vertex 0.44414213562373095 -0.2941421356237309 -0.0275
      vertex 0.44414213562373095 -0.2941421356237309 0.0275
    endloop
  endfacet
  facet normal 0.6593458151000673 -0.7518398074789787 0.0
    outer loop
      vertex 0.4421752285801744 -0.2958670668058247 -0.0275
      vertex 0.44414213562373095 -0.2941421356237309 0.0275
      vertex 0.4421752285801744 -0.2958670668058247 0.0275
    endloop
  endfacet
  facet normal 0.75183980747898 -0.6593458151000658 0.0
    outer loop
      vertex 0.44414213562373095 -0.2941421356237309 -0.0275
      vertex 0.44586706680582466 -0.2921752285801744 -0.0275
      vertex 0.44586706680582466 -0.2921752285801744 0.0275
    endloop
  endfacet
  facet normal 0.75183980747898 -0.6593458151000658 0.0
    outer loop
      vertex 0.44414213562373095 -0.2941421356237309 -0.0275
      vertex 0.44586706680582466 -0.2921752285801744 0.0275
      vertex 0.44414213562373095 -0.2941421356237309 0.0275
    endloop
  endfacet
  facet normal 0.8314696123025472 -0.5555702330195994 0.0
    outer loop
      vertex 0.44586706680582466 -0.2921752285801744 -0.0275
      vertex 0.44732050807568874 -0.29 -0.0275
      vertex 0.44732050807568874 -0.29 0.0275
    endloop
  endfacet
  facet normal 0.8314696123025472 -0.5555702330195994 0.0
    outer loop
      vertex 0.44586706680582466 -0.2921752285801744 -0.0275
      vertex 0.44732050807568874 -0.29 0.0275
      vertex 0.44586706680582466 -0.2921752285801744 0.0275
    endloop
  endfacet
  facet normal 0.8968727415326802 -0.4422886902190176 0.0
    outer loop
      vertex 0.44732050807568874 -0.29 -0.0275
      vertex 0.44847759065022574 -0.2876536686473018 -0.0275
      vertex 0.44847759065022574 -0.2876536686473018 0.0275
    endloop
  endfacet
  facet normal 0.8968727415326802 -0.4422886902190176 0.0
    outer loop
      vertex 0.44732050807568874 -0.29 -0.0275
      vertex 0.44847759065022574 -0.2876536686473018 0.0275
      vertex 0.44732050807568874 -0.29 0.0275
    endloop
  endfacet
  facet normal 0.946930129495108 -0.3214394653031545 0.0
    outer loop
      vertex 0.44847759065022574 -0.2876536686473018 -0.0275
      vertex 0.44931851652578136 -0.2851763809020504 -0.0275
      vertex 0.44931851652578136 -0.2851763809020504 0.0275
    endloop
  endfacet
  facet normal 0.946930129495108 -0.3214394653031545 0.0
    outer loop
      vertex 0.44847759065022574 -0.2876536686473018 -0.0275
      vertex 0.44931851652578136 -0.2851763809020504 0.0275
      vertex 0.44847759065022574 -0.2876536686473018 0.0275
    endloop
  endfacet
  facet normal 0.9807852804032303 -0.19509032201612905 0.0
    outer loop
      vertex 0.44931851652578136 -0.2851763809020504 -0.0275
      vertex 0.4498288972274762 -0.282610523844401 -0.0275
      vertex 0.4498288972274762 -0.282610523844401 0.0275
    endloop
  endfacet
  facet normal 0.9807852804032303 -0.19509032201612905 0.0
    outer loop
      vertex 0.44931851652578136 -0.2851763809020504 -0.0275
      vertex 0.4498288972274762 -0.282610523844401 0.0275
      vertex 0.44931851652578136 -0.2851763809020504 0.0275
    endloop
  endfacet
  facet normal 0.9978589232386033 -0.06540312923014684 0.0
    outer loop
      vertex 0.4498288972274762 -0.282610523844401 -0.0275
      vertex 0.45 -0.27999999999999997 -0.0275
      vertex 0.45 -0.27999999999999997 0.0275
    endloop
  endfacet
  facet normal 0.9978589232386033 -0.06540312923014684 0.0
    outer loop
      vertex 0.4498288972274762 -0.282610523844401 -0.0275
      vertex 0.45 -0.27999999999999997 0.0275
      vertex 0.4498288972274762 -0.282610523844401 0.0275
    endloop
  endfacet
  facet normal 1.0 0.0 0.0
    outer loop
      vertex 0.45 -0.27999999999999997 -0.0275
      vertex 0.45 0.27999999999999997 -0.0275
      vertex 0.45 0.27999999999999997 0.0275
    endloop
  endfacet
  facet normal 1.0 0.0 0.0
    outer loop
      vertex 0.45 -0.27999999999999997 -0.0275
      vertex 0.45 0.27999999999999997 0.0275
      vertex 0.45 -0.27999999999999997 0.0275
    endloop
  endfacet
endsolid filleted_body
